<svg width="438" height="438" viewBox="0 0 438 438" fill="none" xmlns="http://www.w3.org/2000/svg">
<circle cx="219" cy="219" r="219" fill="url(#paint0_linear_2_35)"/>
<g clip-path="url(#clip0_2_35)">
<g filter="url(#filter0_d_2_35)">
<path d="M242.802 201.748C239.667 201.748 236.602 202.673 233.995 204.406C231.388 206.14 229.357 208.603 228.157 211.486C226.957 214.368 226.643 217.54 227.255 220.6C227.866 223.66 229.376 226.471 231.593 228.677C233.81 230.883 236.634 232.386 239.709 232.994C242.784 233.603 245.972 233.291 248.868 232.097C251.765 230.903 254.241 228.881 255.982 226.287C257.724 223.693 258.654 220.643 258.654 217.523C258.649 213.34 256.978 209.331 254.006 206.373C251.034 203.416 247.005 201.753 242.802 201.748V201.748Z" fill="white"/>
</g>
<g filter="url(#filter1_d_2_35)">
<path d="M253.297 153.927V182.373C261.357 184.773 268.353 189.837 273.131 196.728L300.318 187.936C295.674 179.022 289.007 171.307 280.845 165.404C272.683 159.5 263.251 155.571 253.297 153.927V153.927Z" fill="white"/>
</g>
<g filter="url(#filter2_d_2_35)">
<path d="M306.825 207.807L279.628 216.601C279.635 216.908 279.652 217.214 279.652 217.525C279.658 225.583 276.982 233.416 272.042 239.802L288.835 262.801C295.933 255.664 301.257 246.975 304.38 237.426C307.504 227.878 308.34 217.735 306.824 207.807H306.825Z" fill="white"/>
</g>
<g filter="url(#filter3_d_2_35)">
<path d="M242.799 79.9592H115.065C113.679 79.9483 112.305 80.2104 111.021 80.7306C109.738 81.2507 108.57 82.0186 107.587 82.9899C106.603 83.9611 105.822 85.1166 105.289 86.3897C104.756 87.6627 104.482 89.0282 104.482 90.4073C104.482 91.7863 104.756 93.1518 105.289 94.4248C105.822 95.6979 106.603 96.8534 107.587 97.8247C108.57 98.7959 109.738 99.5638 111.021 100.084C112.305 100.604 113.679 100.866 115.065 100.855H169.637C158.144 108.021 147.764 116.818 138.826 126.97H67.4672C64.697 126.992 62.0477 128.102 60.0966 130.059C58.1454 132.016 57.0506 134.661 57.0506 137.418C57.0506 140.175 58.1454 142.82 60.0966 144.777C62.0477 146.735 64.697 147.845 67.4672 147.867H123.64C110.144 170.678 103.563 196.885 104.688 223.332C105.814 249.779 114.598 275.338 129.984 296.931H100.194C97.4241 296.953 94.7749 298.064 92.8239 300.021C90.8729 301.978 89.7782 304.623 89.7782 307.379C89.7782 310.136 90.8729 312.781 92.8239 314.738C94.7749 316.695 97.4241 317.805 100.194 317.827H148.309C154.871 323.953 162.015 329.431 169.64 334.184H68.55C65.78 334.206 63.1308 335.317 61.1798 337.274C59.2288 339.231 58.1341 341.876 58.1341 344.632C58.1341 347.389 59.2288 350.034 61.1798 351.991C63.1308 353.948 65.78 355.058 68.55 355.08H242.799C319.022 355.08 381.032 293.37 381.032 217.519C381.032 141.669 319.022 79.9592 242.799 79.9592ZM293.8 286.087C293.607 286.249 293.415 286.413 293.207 286.563C292.973 286.732 292.733 286.893 292.49 287.038C277.985 297.33 260.614 302.862 242.799 302.862C224.984 302.862 207.613 297.33 193.107 287.038C192.864 286.891 192.625 286.732 192.39 286.563C192.183 286.412 191.993 286.249 191.798 286.087C177.288 275.406 166.535 260.443 161.069 243.326C155.602 226.21 155.701 207.814 161.352 190.757C167.002 173.7 177.916 158.852 192.54 148.327C207.163 137.802 224.751 132.136 242.798 132.136C260.846 132.136 278.433 137.802 293.057 148.327C307.68 158.852 318.594 173.7 324.245 190.757C329.896 207.814 329.995 226.21 324.528 243.326C319.062 260.443 308.308 275.406 293.799 286.087H293.8Z" fill="white"/>
</g>
<g filter="url(#filter4_d_2_35)">
<path d="M185.279 187.934L212.466 196.725C217.245 189.836 224.24 184.773 232.299 182.372V153.925C222.345 155.57 212.914 159.499 204.752 165.402C196.591 171.305 189.923 179.02 185.279 187.934V187.934Z" fill="white"/>
</g>
<g filter="url(#filter5_d_2_35)">
<path d="M255.068 252.093C247.131 254.889 238.47 254.889 230.533 252.093L213.738 275.096C222.754 279.61 232.707 281.961 242.799 281.961C252.892 281.961 262.845 279.61 271.861 275.096L255.068 252.093Z" fill="white"/>
</g>
<g filter="url(#filter6_d_2_35)">
<path d="M205.949 217.525C205.949 217.216 205.965 216.91 205.972 216.601L178.775 207.807C177.258 217.735 178.095 227.878 181.218 237.427C184.342 246.975 189.666 255.665 196.765 262.802L213.557 239.802C208.618 233.416 205.943 225.583 205.949 217.525V217.525Z" fill="white"/>
</g>
</g>
<defs>
<filter id="filter0_d_2_35" x="220.95" y="198.748" width="43.7038" height="43.5497" filterUnits="userSpaceOnUse" color-interpolation-filters="sRGB">
<feFlood flood-opacity="0" result="BackgroundImageFix"/>
<feColorMatrix in="SourceAlpha" type="matrix" values="0 0 0 0 0 0 0 0 0 0 0 0 0 0 0 0 0 0 127 0" result="hardAlpha"/>
<feOffset dy="3"/>
<feGaussianBlur stdDeviation="3"/>
<feColorMatrix type="matrix" values="0 0 0 0 0 0 0 0 0 0 0 0 0 0 0 0 0 0 0.161 0"/>
<feBlend mode="normal" in2="BackgroundImageFix" result="effect1_dropShadow_2_35"/>
<feBlend mode="normal" in="SourceGraphic" in2="effect1_dropShadow_2_35" result="shape"/>
</filter>
<filter id="filter1_d_2_35" x="247.297" y="150.927" width="59.0205" height="54.8011" filterUnits="userSpaceOnUse" color-interpolation-filters="sRGB">
<feFlood flood-opacity="0" result="BackgroundImageFix"/>
<feColorMatrix in="SourceAlpha" type="matrix" values="0 0 0 0 0 0 0 0 0 0 0 0 0 0 0 0 0 0 127 0" result="hardAlpha"/>
<feOffset dy="3"/>
<feGaussianBlur stdDeviation="3"/>
<feColorMatrix type="matrix" values="0 0 0 0 0 0 0 0 0 0 0 0 0 0 0 0 0 0 0.161 0"/>
<feBlend mode="normal" in2="BackgroundImageFix" result="effect1_dropShadow_2_35"/>
<feBlend mode="normal" in="SourceGraphic" in2="effect1_dropShadow_2_35" result="shape"/>
</filter>
<filter id="filter2_d_2_35" x="266.042" y="204.807" width="47.5167" height="66.9935" filterUnits="userSpaceOnUse" color-interpolation-filters="sRGB">
<feFlood flood-opacity="0" result="BackgroundImageFix"/>
<feColorMatrix in="SourceAlpha" type="matrix" values="0 0 0 0 0 0 0 0 0 0 0 0 0 0 0 0 0 0 127 0" result="hardAlpha"/>
<feOffset dy="3"/>
<feGaussianBlur stdDeviation="3"/>
<feColorMatrix type="matrix" values="0 0 0 0 0 0 0 0 0 0 0 0 0 0 0 0 0 0 0.161 0"/>
<feBlend mode="normal" in2="BackgroundImageFix" result="effect1_dropShadow_2_35"/>
<feBlend mode="normal" in="SourceGraphic" in2="effect1_dropShadow_2_35" result="shape"/>
</filter>
<filter id="filter3_d_2_35" x="51.0506" y="76.9589" width="335.981" height="287.121" filterUnits="userSpaceOnUse" color-interpolation-filters="sRGB">
<feFlood flood-opacity="0" result="BackgroundImageFix"/>
<feColorMatrix in="SourceAlpha" type="matrix" values="0 0 0 0 0 0 0 0 0 0 0 0 0 0 0 0 0 0 127 0" result="hardAlpha"/>
<feOffset dy="3"/>
<feGaussianBlur stdDeviation="3"/>
<feColorMatrix type="matrix" values="0 0 0 0 0 0 0 0 0 0 0 0 0 0 0 0 0 0 0.161 0"/>
<feBlend mode="normal" in2="BackgroundImageFix" result="effect1_dropShadow_2_35"/>
<feBlend mode="normal" in="SourceGraphic" in2="effect1_dropShadow_2_35" result="shape"/>
</filter>
<filter id="filter4_d_2_35" x="179.279" y="150.925" width="59.0192" height="54.7997" filterUnits="userSpaceOnUse" color-interpolation-filters="sRGB">
<feFlood flood-opacity="0" result="BackgroundImageFix"/>
<feColorMatrix in="SourceAlpha" type="matrix" values="0 0 0 0 0 0 0 0 0 0 0 0 0 0 0 0 0 0 127 0" result="hardAlpha"/>
<feOffset dy="3"/>
<feGaussianBlur stdDeviation="3"/>
<feColorMatrix type="matrix" values="0 0 0 0 0 0 0 0 0 0 0 0 0 0 0 0 0 0 0.161 0"/>
<feBlend mode="normal" in2="BackgroundImageFix" result="effect1_dropShadow_2_35"/>
<feBlend mode="normal" in="SourceGraphic" in2="effect1_dropShadow_2_35" result="shape"/>
</filter>
<filter id="filter5_d_2_35" x="207.738" y="249.093" width="70.1227" height="41.8685" filterUnits="userSpaceOnUse" color-interpolation-filters="sRGB">
<feFlood flood-opacity="0" result="BackgroundImageFix"/>
<feColorMatrix in="SourceAlpha" type="matrix" values="0 0 0 0 0 0 0 0 0 0 0 0 0 0 0 0 0 0 127 0" result="hardAlpha"/>
<feOffset dy="3"/>
<feGaussianBlur stdDeviation="3"/>
<feColorMatrix type="matrix" values="0 0 0 0 0 0 0 0 0 0 0 0 0 0 0 0 0 0 0.161 0"/>
<feBlend mode="normal" in2="BackgroundImageFix" result="effect1_dropShadow_2_35"/>
<feBlend mode="normal" in="SourceGraphic" in2="effect1_dropShadow_2_35" result="shape"/>
</filter>
<filter id="filter6_d_2_35" x="172.04" y="204.807" width="47.5173" height="66.9948" filterUnits="userSpaceOnUse" color-interpolation-filters="sRGB">
<feFlood flood-opacity="0" result="BackgroundImageFix"/>
<feColorMatrix in="SourceAlpha" type="matrix" values="0 0 0 0 0 0 0 0 0 0 0 0 0 0 0 0 0 0 127 0" result="hardAlpha"/>
<feOffset dy="3"/>
<feGaussianBlur stdDeviation="3"/>
<feColorMatrix type="matrix" values="0 0 0 0 0 0 0 0 0 0 0 0 0 0 0 0 0 0 0.161 0"/>
<feBlend mode="normal" in2="BackgroundImageFix" result="effect1_dropShadow_2_35"/>
<feBlend mode="normal" in="SourceGraphic" in2="effect1_dropShadow_2_35" result="shape"/>
</filter>
<linearGradient id="paint0_linear_2_35" x1="88.7231" y1="46.6077" x2="346.469" y2="388.023" gradientUnits="userSpaceOnUse">
<stop stop-color="#FF7B7B"/>
<stop offset="1" stop-color="#F96060"/>
</linearGradient>
<clipPath id="clip0_2_35">
<rect width="336" height="287" fill="white" transform="translate(51 76)"/>
</clipPath>
</defs>
</svg>
