<svg width="2600" height="496" viewBox="0 0 2600 496" fill="none" xmlns="http://www.w3.org/2000/svg">
<circle cx="232" cy="248" r="219" fill="url(#paint0_linear_1_2)"/>
<g clip-path="url(#clip0_1_2)">
<g filter="url(#filter0_d_1_2)">
<path d="M255.802 230.748C252.667 230.748 249.602 231.673 246.995 233.406C244.388 235.14 242.357 237.603 241.157 240.486C239.957 243.368 239.643 246.54 240.255 249.6C240.866 252.66 242.376 255.471 244.593 257.677C246.81 259.883 249.634 261.386 252.709 261.994C255.784 262.603 258.972 262.291 261.868 261.097C264.765 259.903 267.241 257.881 268.982 255.287C270.724 252.693 271.654 249.643 271.654 246.523C271.649 242.34 269.978 238.331 267.006 235.373C264.034 232.416 260.005 230.753 255.802 230.748V230.748Z" fill="white"/>
</g>
<g filter="url(#filter1_d_1_2)">
<path d="M266.297 182.927V211.373C274.357 213.773 281.353 218.837 286.131 225.728L313.318 216.936C308.674 208.022 302.007 200.307 293.845 194.404C285.683 188.5 276.251 184.571 266.297 182.927V182.927Z" fill="white"/>
</g>
<g filter="url(#filter2_d_1_2)">
<path d="M319.825 236.807L292.628 245.601C292.635 245.908 292.652 246.214 292.652 246.525C292.658 254.583 289.982 262.416 285.042 268.802L301.835 291.801C308.933 284.664 314.257 275.975 317.38 266.426C320.504 256.878 321.34 246.735 319.824 236.807H319.825Z" fill="white"/>
</g>
<g filter="url(#filter3_d_1_2)">
<path d="M255.799 108.959H128.065C126.679 108.948 125.305 109.21 124.021 109.731C122.738 110.251 121.57 111.019 120.587 111.99C119.603 112.961 118.822 114.117 118.289 115.39C117.756 116.663 117.482 118.028 117.482 119.407C117.482 120.786 117.756 122.152 118.289 123.425C118.822 124.698 119.603 125.853 120.587 126.825C121.57 127.796 122.738 128.564 124.021 129.084C125.305 129.604 126.679 129.866 128.065 129.855H182.637C171.144 137.021 160.764 145.818 151.826 155.97H80.4672C77.697 155.992 75.0477 157.102 73.0966 159.059C71.1454 161.016 70.0506 163.661 70.0506 166.418C70.0506 169.175 71.1454 171.82 73.0966 173.777C75.0477 175.735 77.697 176.845 80.4672 176.867H136.64C123.144 199.678 116.563 225.885 117.688 252.332C118.814 278.779 127.598 304.338 142.984 325.931H113.194C110.424 325.953 107.775 327.064 105.824 329.021C103.873 330.978 102.778 333.623 102.778 336.379C102.778 339.136 103.873 341.781 105.824 343.738C107.775 345.695 110.424 346.805 113.194 346.827H161.309C167.871 352.953 175.015 358.431 182.64 363.184H81.55C78.78 363.206 76.1308 364.317 74.1798 366.274C72.2288 368.231 71.1341 370.876 71.1341 373.632C71.1341 376.389 72.2288 379.034 74.1798 380.991C76.1308 382.948 78.78 384.058 81.55 384.08H255.799C332.022 384.08 394.032 322.37 394.032 246.519C394.032 170.669 332.022 108.959 255.799 108.959ZM306.8 315.087C306.607 315.249 306.415 315.413 306.207 315.563C305.973 315.732 305.733 315.893 305.49 316.038C290.985 326.33 273.614 331.862 255.799 331.862C237.984 331.862 220.613 326.33 206.107 316.038C205.864 315.891 205.625 315.732 205.39 315.563C205.183 315.412 204.993 315.249 204.798 315.087C190.288 304.406 179.535 289.443 174.069 272.326C168.602 255.21 168.701 236.814 174.352 219.757C180.002 202.7 190.916 187.852 205.54 177.327C220.163 166.802 237.751 161.136 255.798 161.136C273.846 161.136 291.433 166.802 306.057 177.327C320.68 187.852 331.594 202.7 337.245 219.757C342.896 236.814 342.995 255.21 337.528 272.326C332.062 289.443 321.308 304.406 306.799 315.087H306.8Z" fill="white"/>
</g>
<g filter="url(#filter4_d_1_2)">
<path d="M198.279 216.934L225.466 225.725C230.245 218.836 237.24 213.773 245.299 211.372V182.925C235.345 184.57 225.914 188.499 217.752 194.402C209.591 200.305 202.923 208.02 198.279 216.934V216.934Z" fill="white"/>
</g>
<g filter="url(#filter5_d_1_2)">
<path d="M268.068 281.093C260.131 283.889 251.47 283.889 243.533 281.093L226.738 304.096C235.754 308.61 245.707 310.961 255.799 310.961C265.892 310.961 275.845 308.61 284.861 304.096L268.068 281.093Z" fill="white"/>
</g>
<g filter="url(#filter6_d_1_2)">
<path d="M218.949 246.525C218.949 246.216 218.965 245.91 218.972 245.601L191.775 236.807C190.258 246.735 191.095 256.878 194.218 266.427C197.342 275.975 202.666 284.665 209.765 291.802L226.557 268.802C221.618 262.416 218.943 254.583 218.949 246.525V246.525Z" fill="white"/>
</g>
</g>
<path d="M512.631 127.545L579.832 324.199H582.544L649.746 127.545H689.124L602.233 369H560.143L473.253 127.545H512.631ZM781.054 372.655C763.212 372.655 747.846 368.843 734.956 361.219C722.145 353.516 712.241 342.709 705.246 328.797C698.329 314.806 694.871 298.419 694.871 279.634C694.871 261.084 698.329 244.736 705.246 230.588C712.241 216.44 721.988 205.397 734.485 197.459C747.06 189.52 761.758 185.551 778.578 185.551C788.796 185.551 798.7 187.241 808.289 190.621C817.878 194 826.484 199.306 834.108 206.537C841.732 213.768 847.745 223.161 852.147 234.714C856.548 246.19 858.749 260.141 858.749 276.568V289.065H714.796V262.656H824.205C824.205 253.382 822.319 245.168 818.546 238.016C814.773 230.785 809.468 225.086 802.63 220.92C795.87 216.755 787.932 214.672 778.814 214.672C768.911 214.672 760.265 217.108 752.877 221.982C745.567 226.776 739.908 233.064 735.9 240.845C731.97 248.548 730.005 256.919 730.005 265.957V286.589C730.005 298.694 732.127 308.99 736.371 317.479C740.694 325.967 746.707 332.452 754.409 336.932C762.112 341.333 771.112 343.534 781.408 343.534C788.089 343.534 794.18 342.591 799.682 340.705C805.184 338.74 809.939 335.831 813.948 331.98C817.956 328.129 821.022 323.374 823.144 317.714L856.509 323.727C853.837 333.552 849.042 342.159 842.125 349.547C835.287 356.857 826.681 362.555 816.306 366.642C806.009 370.651 794.259 372.655 781.054 372.655ZM933.113 261.477V369H897.862V127.545H932.641V217.384H934.881C939.126 207.637 945.61 199.895 954.335 194.158C963.059 188.42 974.456 185.551 988.525 185.551C1000.94 185.551 1011.79 188.106 1021.06 193.214C1030.42 198.323 1037.65 205.947 1042.76 216.087C1047.95 226.147 1050.54 238.723 1050.54 253.814V369H1015.29V258.058C1015.29 244.775 1011.87 234.479 1005.03 227.169C998.192 219.781 988.682 216.087 976.499 216.087C968.168 216.087 960.701 217.855 954.099 221.392C947.575 224.929 942.427 230.116 938.654 236.955C934.96 243.714 933.113 251.888 933.113 261.477ZM1097.58 369V187.909H1132.83V369H1097.58ZM1115.38 159.967C1109.25 159.967 1103.99 157.924 1099.58 153.837C1095.26 149.671 1093.1 144.719 1093.1 138.982C1093.1 133.165 1095.26 128.214 1099.58 124.126C1103.99 119.961 1109.25 117.878 1115.38 117.878C1121.51 117.878 1126.74 119.961 1131.06 124.126C1135.46 128.214 1137.67 133.165 1137.67 138.982C1137.67 144.719 1135.46 149.671 1131.06 153.837C1126.74 157.924 1121.51 159.967 1115.38 159.967ZM1256.54 372.655C1239.01 372.655 1223.92 368.686 1211.26 360.747C1198.69 352.73 1189.02 341.687 1182.26 327.618C1175.5 313.549 1172.12 297.436 1172.12 279.28C1172.12 260.888 1175.58 244.657 1182.5 230.588C1189.41 216.44 1199.16 205.397 1211.73 197.459C1224.31 189.52 1239.13 185.551 1256.18 185.551C1269.94 185.551 1282.2 188.106 1292.97 193.214C1303.73 198.245 1312.42 205.319 1319.02 214.436C1325.7 223.553 1329.67 234.204 1330.93 246.386H1296.62C1294.73 237.898 1290.41 230.588 1283.65 224.457C1276.97 218.327 1268.01 215.261 1256.77 215.261C1246.95 215.261 1238.34 217.855 1230.95 223.043C1223.64 228.152 1217.94 235.461 1213.86 244.972C1209.77 254.403 1207.73 265.564 1207.73 278.455C1207.73 291.659 1209.73 303.056 1213.74 312.645C1217.75 322.234 1223.41 329.661 1230.72 334.928C1238.1 340.194 1246.79 342.827 1256.77 342.827C1263.45 342.827 1269.5 341.608 1274.93 339.172C1280.43 336.657 1285.03 333.08 1288.72 328.443C1292.49 323.806 1295.13 318.225 1296.62 311.702H1330.93C1329.67 323.413 1325.86 333.866 1319.49 343.062C1313.13 352.259 1304.6 359.49 1293.91 364.756C1283.3 370.022 1270.84 372.655 1256.54 372.655ZM1403.88 127.545V369H1368.63V127.545H1403.88ZM1529.35 372.655C1511.51 372.655 1496.14 368.843 1483.25 361.219C1470.44 353.516 1460.54 342.709 1453.54 328.797C1446.63 314.806 1443.17 298.419 1443.17 279.634C1443.17 261.084 1446.63 244.736 1453.54 230.588C1460.54 216.44 1470.28 205.397 1482.78 197.459C1495.36 189.52 1510.06 185.551 1526.88 185.551C1537.09 185.551 1547 187.241 1556.59 190.621C1566.17 194 1574.78 199.306 1582.41 206.537C1590.03 213.768 1596.04 223.161 1600.44 234.714C1604.85 246.19 1607.05 260.141 1607.05 276.568V289.065H1463.09V262.656H1572.5C1572.5 253.382 1570.62 245.168 1566.84 238.016C1563.07 230.785 1557.76 225.086 1550.93 220.92C1544.17 216.755 1536.23 214.672 1527.11 214.672C1517.21 214.672 1508.56 217.108 1501.17 221.982C1493.86 226.776 1488.2 233.064 1484.2 240.845C1480.27 248.548 1478.3 256.919 1478.3 265.957V286.589C1478.3 298.694 1480.42 308.99 1484.67 317.479C1488.99 325.967 1495 332.452 1502.71 336.932C1510.41 341.333 1519.41 343.534 1529.7 343.534C1536.39 343.534 1542.48 342.591 1547.98 340.705C1553.48 338.74 1558.24 335.831 1562.24 331.98C1566.25 328.129 1569.32 323.374 1571.44 317.714L1604.81 323.727C1602.13 333.552 1597.34 342.159 1590.42 349.547C1583.58 356.857 1574.98 362.555 1564.6 366.642C1554.31 370.651 1542.56 372.655 1529.35 372.655ZM1728.13 369V327.028L1816.2 249.923C1822.8 243.95 1828.42 238.487 1833.06 233.536C1837.69 228.505 1841.23 223.475 1843.67 218.445C1846.1 213.336 1847.32 207.795 1847.32 201.821C1847.32 195.14 1845.87 189.442 1842.96 184.726C1840.05 179.931 1836.04 176.237 1830.93 173.643C1825.82 171.05 1819.97 169.753 1813.37 169.753C1806.69 169.753 1800.83 171.128 1795.8 173.879C1790.77 176.552 1786.84 180.442 1784.01 185.551C1781.26 190.66 1779.88 196.869 1779.88 204.179H1724.59C1724.59 187.752 1728.28 173.565 1735.67 161.618C1743.06 149.671 1753.44 140.475 1766.8 134.03C1780.24 127.506 1795.84 124.244 1813.6 124.244C1831.92 124.244 1847.83 127.31 1861.35 133.44C1874.87 139.571 1885.32 148.138 1892.71 159.142C1900.18 170.067 1903.91 182.761 1903.91 197.223C1903.91 206.419 1902.07 215.536 1898.37 224.575C1894.68 233.614 1888.04 243.596 1878.45 254.521C1868.94 265.446 1855.42 278.533 1837.89 293.781L1809 320.426V321.959H1906.86V369H1728.13ZM1931.71 328.915V283.406L2030.62 127.545H2071.06V189.324H2047.6L1989.71 281.048V282.935H2132.96V328.915H1931.71ZM2048.31 369V315.003L2049.49 295.078V127.545H2104.07V369H2048.31ZM2313.87 338.818L2170.27 195.69L2205.52 159.967L2349.12 303.567L2313.87 338.818ZM2205.52 338.818L2170.27 303.567L2313.87 159.967L2349.12 195.69L2205.52 338.818ZM2401.74 369L2499.12 176.119V174.587H2385.23V127.545H2559.48V174.94L2461.75 369H2401.74Z" fill="#003849"/>
<defs>
<filter id="filter0_d_1_2" x="233.95" y="227.748" width="43.7038" height="43.5497" filterUnits="userSpaceOnUse" color-interpolation-filters="sRGB">
<feFlood flood-opacity="0" result="BackgroundImageFix"/>
<feColorMatrix in="SourceAlpha" type="matrix" values="0 0 0 0 0 0 0 0 0 0 0 0 0 0 0 0 0 0 127 0" result="hardAlpha"/>
<feOffset dy="3"/>
<feGaussianBlur stdDeviation="3"/>
<feColorMatrix type="matrix" values="0 0 0 0 0 0 0 0 0 0 0 0 0 0 0 0 0 0 0.161 0"/>
<feBlend mode="normal" in2="BackgroundImageFix" result="effect1_dropShadow_1_2"/>
<feBlend mode="normal" in="SourceGraphic" in2="effect1_dropShadow_1_2" result="shape"/>
</filter>
<filter id="filter1_d_1_2" x="260.297" y="179.927" width="59.0205" height="54.8011" filterUnits="userSpaceOnUse" color-interpolation-filters="sRGB">
<feFlood flood-opacity="0" result="BackgroundImageFix"/>
<feColorMatrix in="SourceAlpha" type="matrix" values="0 0 0 0 0 0 0 0 0 0 0 0 0 0 0 0 0 0 127 0" result="hardAlpha"/>
<feOffset dy="3"/>
<feGaussianBlur stdDeviation="3"/>
<feColorMatrix type="matrix" values="0 0 0 0 0 0 0 0 0 0 0 0 0 0 0 0 0 0 0.161 0"/>
<feBlend mode="normal" in2="BackgroundImageFix" result="effect1_dropShadow_1_2"/>
<feBlend mode="normal" in="SourceGraphic" in2="effect1_dropShadow_1_2" result="shape"/>
</filter>
<filter id="filter2_d_1_2" x="279.042" y="233.807" width="47.5167" height="66.9935" filterUnits="userSpaceOnUse" color-interpolation-filters="sRGB">
<feFlood flood-opacity="0" result="BackgroundImageFix"/>
<feColorMatrix in="SourceAlpha" type="matrix" values="0 0 0 0 0 0 0 0 0 0 0 0 0 0 0 0 0 0 127 0" result="hardAlpha"/>
<feOffset dy="3"/>
<feGaussianBlur stdDeviation="3"/>
<feColorMatrix type="matrix" values="0 0 0 0 0 0 0 0 0 0 0 0 0 0 0 0 0 0 0.161 0"/>
<feBlend mode="normal" in2="BackgroundImageFix" result="effect1_dropShadow_1_2"/>
<feBlend mode="normal" in="SourceGraphic" in2="effect1_dropShadow_1_2" result="shape"/>
</filter>
<filter id="filter3_d_1_2" x="64.0506" y="105.959" width="335.981" height="287.121" filterUnits="userSpaceOnUse" color-interpolation-filters="sRGB">
<feFlood flood-opacity="0" result="BackgroundImageFix"/>
<feColorMatrix in="SourceAlpha" type="matrix" values="0 0 0 0 0 0 0 0 0 0 0 0 0 0 0 0 0 0 127 0" result="hardAlpha"/>
<feOffset dy="3"/>
<feGaussianBlur stdDeviation="3"/>
<feColorMatrix type="matrix" values="0 0 0 0 0 0 0 0 0 0 0 0 0 0 0 0 0 0 0.161 0"/>
<feBlend mode="normal" in2="BackgroundImageFix" result="effect1_dropShadow_1_2"/>
<feBlend mode="normal" in="SourceGraphic" in2="effect1_dropShadow_1_2" result="shape"/>
</filter>
<filter id="filter4_d_1_2" x="192.279" y="179.925" width="59.0192" height="54.7997" filterUnits="userSpaceOnUse" color-interpolation-filters="sRGB">
<feFlood flood-opacity="0" result="BackgroundImageFix"/>
<feColorMatrix in="SourceAlpha" type="matrix" values="0 0 0 0 0 0 0 0 0 0 0 0 0 0 0 0 0 0 127 0" result="hardAlpha"/>
<feOffset dy="3"/>
<feGaussianBlur stdDeviation="3"/>
<feColorMatrix type="matrix" values="0 0 0 0 0 0 0 0 0 0 0 0 0 0 0 0 0 0 0.161 0"/>
<feBlend mode="normal" in2="BackgroundImageFix" result="effect1_dropShadow_1_2"/>
<feBlend mode="normal" in="SourceGraphic" in2="effect1_dropShadow_1_2" result="shape"/>
</filter>
<filter id="filter5_d_1_2" x="220.738" y="278.093" width="70.1227" height="41.8685" filterUnits="userSpaceOnUse" color-interpolation-filters="sRGB">
<feFlood flood-opacity="0" result="BackgroundImageFix"/>
<feColorMatrix in="SourceAlpha" type="matrix" values="0 0 0 0 0 0 0 0 0 0 0 0 0 0 0 0 0 0 127 0" result="hardAlpha"/>
<feOffset dy="3"/>
<feGaussianBlur stdDeviation="3"/>
<feColorMatrix type="matrix" values="0 0 0 0 0 0 0 0 0 0 0 0 0 0 0 0 0 0 0.161 0"/>
<feBlend mode="normal" in2="BackgroundImageFix" result="effect1_dropShadow_1_2"/>
<feBlend mode="normal" in="SourceGraphic" in2="effect1_dropShadow_1_2" result="shape"/>
</filter>
<filter id="filter6_d_1_2" x="185.04" y="233.807" width="47.5173" height="66.9948" filterUnits="userSpaceOnUse" color-interpolation-filters="sRGB">
<feFlood flood-opacity="0" result="BackgroundImageFix"/>
<feColorMatrix in="SourceAlpha" type="matrix" values="0 0 0 0 0 0 0 0 0 0 0 0 0 0 0 0 0 0 127 0" result="hardAlpha"/>
<feOffset dy="3"/>
<feGaussianBlur stdDeviation="3"/>
<feColorMatrix type="matrix" values="0 0 0 0 0 0 0 0 0 0 0 0 0 0 0 0 0 0 0.161 0"/>
<feBlend mode="normal" in2="BackgroundImageFix" result="effect1_dropShadow_1_2"/>
<feBlend mode="normal" in="SourceGraphic" in2="effect1_dropShadow_1_2" result="shape"/>
</filter>
<linearGradient id="paint0_linear_1_2" x1="101.723" y1="75.6077" x2="359.469" y2="417.023" gradientUnits="userSpaceOnUse">
<stop stop-color="#FF7B7B"/>
<stop offset="1" stop-color="#F96060"/>
</linearGradient>
<clipPath id="clip0_1_2">
<rect width="336" height="287" fill="white" transform="translate(64 105)"/>
</clipPath>
</defs>
</svg>
